<?xml version="1.0" encoding="utf-8"?>
<!-- Generator: Adobe Illustrator 16.0.0, SVG Export Plug-In . SVG Version: 6.00 Build 0)  -->
<!DOCTYPE svg PUBLIC "-//W3C//DTD SVG 1.1//EN" "http://www.w3.org/Graphics/SVG/1.1/DTD/svg11.dtd">
<svg version="1.1" xmlns="http://www.w3.org/2000/svg" xmlns:xlink="http://www.w3.org/1999/xlink" x="0px" y="0px" width="1280px"
	 height="800px" viewBox="0 0 1280 800" enable-background="new 0 0 1280 800" xml:space="preserve">
<g id="Layer_1">
	<g>
		<path fill="#FF006C" d="M1039.021,410.035c-32.226-7.478-64.315-23.446-90.353-44.961l-0.374-0.316
			c-3.993-3.417-9.121-5.304-14.428-5.304c-4.675,0-9.15,1.433-12.945,4.143l-0.259,0.183C878.873,392.841,829.07,409.5,784,409.5
			c-45.431,0-93.977-16.207-136.694-45.635l-0.344-0.242v0c-3.828-2.724-8.31-4.163-12.962-4.163s-9.134,1.439-12.96,4.163
			l-0.386,0.269C577.977,393.293,529.431,409.5,484,409.5c-44.791,0-94.616-16.634-136.699-45.638l-0.252-0.177l0,0
			c-3.866-2.729-8.413-4.17-13.149-4.17c-5.303,0-10.403,1.865-14.362,5.253l-0.281,0.238
			c-25.677,21.367-57.678,37.398-90.116,45.147c-12.186,2.835-19.756,14.95-16.948,27.024c2.38,10.235,11.365,17.383,21.85,17.382
			h0.001c1.709,0,3.437-0.2,5.134-0.595c27.226-6.334,55.004-18.304,82.56-35.577c4.381-2.748,9.433-4.2,14.606-4.2
			c4.507,0,8.99,1.123,12.964,3.248C394.674,441.683,441.25,454.5,484,454.5c36.296,0,74.734-9.106,114.246-27.066l0.254-0.114
			c8.401-3.701,15.805-7.544,22.559-11.146c3.967-2.116,8.443-3.235,12.941-3.235s8.974,1.119,12.942,3.236
			c6.24,3.327,13.953,7.133,22.922,11.31C709.338,445.41,747.738,454.5,784,454.5c42.849,0,89.403-12.859,134.629-37.188
			c3.989-2.146,8.494-3.281,13.026-3.281c5.259,0,10.38,1.496,14.811,4.327c18.282,11.685,47.411,27.32,82.359,35.451
			c1.695,0.394,3.422,0.594,5.13,0.594c10.486,0,19.473-7.147,21.854-17.383c1.359-5.847,0.36-11.875-2.813-16.976
			C1049.824,414.948,1044.861,411.394,1039.021,410.035z"/>
	</g>
</g>
<g id="Layer_2">
</g>
</svg>
